# xmcd CD database file
# Copyright (C) 1997 Ti Kan
# 
# Track frame offsets:
#     182
#     15082
#     30810
#     51260
#     67470
#     87610
#     107990
#     142470
#     160255
# 
# Disc length: 2474 seconds
# 
# Revision: 1
# Processed by: cddbd v1.4b41PL1 Copyright (c) Steve Scherf et al.
# Submitted via: DiscPlay 4.0.4
# 
DISCID=7d09a809
DTITLE=Freddie King - Larger Than Life
DYEAR=1900
DGENRE=
TTITLE0=It's Better To Have (And Don't Need)
TTITLE1=You Can Run But You Can't Hide
TTITLE2=Woke Up This Morning
TTITLE3=It's Your Move
TTITLE4=Boogie Bump
TTITLE5=Meet Me In The Morning
TTITLE6=The Things I Used To do
TTITLE7=Ain't That I Don't Love You
TTITLE8=Have You Ever Loved A Woman
EXTD=
EXTT0=
EXTT1=
EXTT2=
EXTT3=
EXTT4=
EXTT5=
EXTT6=
EXTT7=
EXTT8=
PLAYORDER=
